<svg width="30" height="30" viewBox="0 0 30 30" fill="none" xmlns="http://www.w3.org/2000/svg">
<path opacity="0.4" d="M19.35 3.75H9.4C5.0875 3.75 2.5 6.325 2.5 10.65V20.5875C2.5 24.925 5.0875 27.5 9.4 27.5H19.3375C23.6625 27.5 26.2375 24.925 26.2375 20.6V10.65C26.25 6.325 23.6625 3.75 19.35 3.75Z" fill="white"/>
<path d="M26.2751 3.7251C24.0376 1.4751 21.8501 1.4251 19.5501 3.7251L18.1376 5.1251C18.0126 5.2501 17.9751 5.4251 18.0251 5.5876C18.9001 8.6501 21.3501 11.1001 24.4126 11.9751C24.4501 11.9876 24.5126 11.9876 24.5501 11.9876C24.6751 11.9876 24.8001 11.9376 24.8876 11.8501L26.2751 10.4501C27.4126 9.3126 27.9751 8.2251 27.9751 7.1126C27.9751 5.9876 27.4126 4.8751 26.2751 3.7251Z" fill="white"/>
<path d="M22.3249 13.025C21.9874 12.8625 21.6624 12.7 21.3624 12.5125C21.1124 12.3625 20.8624 12.2 20.6249 12.025C20.4249 11.9 20.1999 11.7125 19.9749 11.525C19.9499 11.5125 19.8749 11.45 19.7749 11.35C19.3874 11.0375 18.9749 10.6125 18.5874 10.15C18.5624 10.125 18.4874 10.05 18.4249 9.93755C18.2999 9.80005 18.1124 9.56255 17.9499 9.30005C17.8124 9.12505 17.6499 8.87505 17.4999 8.61255C17.3124 8.30005 17.1499 7.98755 16.9999 7.66255C16.8374 7.31255 16.7124 6.98755 16.5999 6.67505L9.87488 13.4C9.43738 13.8375 9.01238 14.6625 8.92488 15.275L8.38738 19C8.27488 19.7875 8.48738 20.525 8.97488 21.0125C9.38738 21.425 9.94988 21.6375 10.5749 21.6375C10.7124 21.6375 10.8499 21.625 10.9874 21.6125L14.6999 21.0875C15.3124 21 16.1374 20.5875 16.5749 20.1375L23.2999 13.4125C22.9874 13.3125 22.6749 13.175 22.3249 13.025Z" fill="white"/>
</svg>
