<?xml version="1.0" encoding="utf-8"?>
<!-- Generator: Adobe Illustrator 24.0.1, SVG Export Plug-In . SVG Version: 6.00 Build 0)  -->
<svg version="1.1" id="Layer_1" xmlns="http://www.w3.org/2000/svg" xmlns:xlink="http://www.w3.org/1999/xlink" x="0px" y="0px"
	 viewBox="0 0 24 24" style="enable-background:new 0 0 24 24;" xml:space="preserve">
<style type="text/css">
	.st0{fill:#372E29;}
</style>
<g>
	<path class="st0" d="M18,14c-0.4-0.4-0.6-1-0.6-1.6c0.1-1.5-0.3-2.9-1.3-4s-2.3-1.8-3.8-2c-0.3,0-0.7,0-1,0c-0.3,0-0.6,0.1-0.8,0.4
		c-0.5,0.5-0.5,1.3,0,1.8l1.5,1.6c0.1,0.1,0.2,0.3,0.2,0.4s-0.1,0.3-0.2,0.4l-1.2,1.2c-0.2,0.2-0.6,0.2-0.9,0l-1.5-1.6
		c-0.5-0.5-1.3-0.5-1.8,0c-0.2,0.2-0.3,0.5-0.4,0.8c-0.2,1.5,0.3,2.9,1.2,4.1s2.2,1.9,3.7,2c0.3,0,0.7,0,1,0c0.6,0,1.2,0.2,1.6,0.6
		l3.6,3.7c0.1,0.2,0.3,0.2,0.5,0.2c0.2,0,0.4-0.1,0.5-0.2c0.3-0.3,0.3-0.8,0-1.1L15,17c-0.7-0.8-1.8-1.1-2.8-1.1
		C9.9,16,8,14.4,7.9,12.2c0-0.1,0-0.1,0-0.2L9,13.2c0.4,0.4,0.9,0.6,1.5,0.6c0,0,0,0,0,0c0.6,0,1.1-0.2,1.5-0.6l1.2-1.2
		c0.4-0.4,0.6-0.9,0.6-1.5c0-0.6-0.2-1.1-0.6-1.5l-1.1-1.2c2,0.1,3.7,1.7,3.8,3.7c0,0.2,0,0.4,0,0.6c-0.1,1,0.3,2.1,1,2.8l3.6,3.7
		c0.1,0.1,0.3,0.2,0.5,0.2c0,0,0,0,0,0c0.2,0,0.4-0.1,0.5-0.2c0.1-0.1,0.2-0.3,0.2-0.5c0-0.2-0.1-0.4-0.2-0.5L18,14z"/>
	<path class="st0" d="M21.6,9.4l-1.1-0.2C20.3,8.8,20.2,8.4,20,8l0.6-0.9c0.5-0.8,0.5-1.8-0.2-2.5l-0.9-0.9
		c-0.7-0.7-1.7-0.8-2.5-0.2L16,4c-0.4-0.2-0.8-0.4-1.2-0.5l-0.2-1.1c-0.2-0.9-1-1.6-1.9-1.6h-1.3c0,0,0,0,0,0c-1,0-1.8,0.7-1.9,1.6
		L9.2,3.5C8.8,3.7,8.4,3.8,8,4L7.1,3.4C6.3,2.8,5.2,2.9,4.5,3.6L3.6,4.5C2.9,5.2,2.8,6.3,3.4,7.1L4,8C3.8,8.4,3.7,8.8,3.5,9.2
		L2.4,9.4c-0.9,0.2-1.6,1-1.6,1.9v1.3c0,1,0.7,1.8,1.6,1.9l1.1,0.2C3.7,15.2,3.8,15.6,4,16l-0.6,0.9c-0.5,0.8-0.5,1.8,0.2,2.5
		l0.9,0.9c0.7,0.7,1.7,0.8,2.5,0.2L8,20c0.4,0.2,0.8,0.4,1.2,0.5l0.2,1.1c0.2,0.9,1,1.6,1.9,1.6c0,0,0,0,0,0h1.3c0,0,0,0,0,0
		c1,0,1.8-0.7,1.9-1.6c0-0.2,0-0.4-0.1-0.6c-0.1-0.2-0.3-0.3-0.5-0.3c-0.4-0.1-0.8,0.2-0.9,0.6c0,0.2-0.2,0.4-0.4,0.4h-1.3
		c-0.2,0-0.4-0.2-0.4-0.4l-0.3-1.6c-0.1-0.3-0.3-0.5-0.5-0.6c-0.6-0.2-1.2-0.4-1.8-0.7c-0.3-0.1-0.6-0.1-0.8,0l-1.3,0.9
		c-0.2,0.1-0.4,0.1-0.6,0l-0.9-0.9c-0.2-0.2-0.2-0.4,0-0.6l0.9-1.3c0.2-0.2,0.2-0.6,0-0.8c-0.3-0.6-0.6-1.1-0.7-1.8
		c-0.1-0.3-0.3-0.5-0.6-0.6l-1.6-0.3c-0.2,0-0.4-0.2-0.4-0.4v-1.3c0-0.2,0.2-0.4,0.4-0.4l1.6-0.3c0.3-0.1,0.5-0.3,0.6-0.5
		C5,9.5,5.3,8.9,5.6,8.3c0.1-0.3,0.1-0.6,0-0.8L4.6,6.2C4.5,6,4.5,5.8,4.7,5.6l0.9-0.9c0.2-0.2,0.4-0.2,0.6,0l1.3,0.9
		c0.2,0.2,0.6,0.2,0.8,0C8.9,5.3,9.5,5,10.1,4.9c0.3-0.1,0.5-0.3,0.6-0.6l0.3-1.6c0-0.2,0.2-0.4,0.4-0.4h1.3c0.2,0,0.4,0.2,0.4,0.4
		l0.3,1.6c0.1,0.3,0.3,0.5,0.5,0.6c0.6,0.2,1.2,0.4,1.8,0.7c0.3,0.1,0.6,0.1,0.8,0l1.3-0.9c0.2-0.1,0.4-0.1,0.6,0l0.9,0.9
		c0.2,0.2,0.2,0.4,0,0.6l-0.9,1.3c-0.2,0.2-0.2,0.6,0,0.8c0.3,0.6,0.6,1.1,0.7,1.8c0.1,0.3,0.3,0.5,0.6,0.5l1.6,0.3
		c0.2,0,0.4,0.2,0.4,0.4v1.3c0,0.2-0.2,0.4-0.4,0.4c-0.2,0-0.4,0.1-0.5,0.3c-0.1,0.2-0.2,0.4-0.1,0.6s0.1,0.4,0.3,0.5
		c0.2,0.1,0.4,0.2,0.6,0.1c0.9-0.2,1.6-1,1.6-1.9v-1.3C23.2,10.4,22.5,9.6,21.6,9.4z"/>
</g>
</svg>
