<svg width="22" height="20" viewBox="0 0 22 20" xmlns="http://www.w3.org/2000/svg">

<style type="text/css">
    .pneumatico{
        fill:#262626;
    }
    .pneumatico:hover{
        fill:#F9B233;
    }
</style>
<path class="pneumatico"  d="M12.6157 0.615601H3.94407C3.55043 0.615601 3.2313 0.93473 3.2313 1.32837C3.2313 1.72201 3.55043 2.04113 3.94407 2.04113H7.6491C6.86741 2.53068 6.16259 3.1319 5.55737 3.82262H0.712767C0.319129 3.82267 0 4.14184 0 4.53548C0 4.92911 0.319129 5.24824 0.712767 5.24824H4.52625C3.70391 6.64284 3.23126 8.26715 3.23126 9.99995C3.23126 12.0162 3.87059 13.886 4.95693 15.4173H2.93456C2.54092 15.4173 2.22179 15.7365 2.22179 16.1301C2.22179 16.5237 2.54092 16.8429 2.93456 16.8429H6.201C6.64543 17.2598 7.13033 17.6338 7.6491 17.9587H0.786287C0.392649 17.9587 0.0735197 18.2779 0.0735197 18.6715C0.0735197 19.0651 0.392649 19.3843 0.786287 19.3843H12.6157C17.7903 19.3843 22 15.1744 22 9.99991C22 4.82539 17.7902 0.615601 12.6157 0.615601ZM12.6157 17.9588C8.22716 17.9588 4.65688 14.3885 4.65688 9.99999C4.65688 5.61146 8.22716 2.04118 12.6157 2.04118C17.0041 2.04118 20.5744 5.61146 20.5744 9.99995C20.5744 14.3884 17.0042 17.9588 12.6157 17.9588Z"/>
<path class="pneumatico"  d="M12.6157 4.17802C9.40541 4.17802 6.79367 6.78975 6.79367 9.99999C6.79367 11.9144 7.72262 13.6158 9.15331 14.6776C9.16641 14.6887 9.17943 14.6998 9.19357 14.71C9.20947 14.7216 9.22575 14.7324 9.24221 14.7424C10.1946 15.4218 11.3592 15.8219 12.6157 15.8219C13.8721 15.8219 15.0367 15.4218 15.9891 14.7424C16.0056 14.7324 16.0218 14.7216 16.0377 14.71C16.0518 14.6998 16.0649 14.6886 16.078 14.6776C17.5086 13.6158 18.4376 11.9144 18.4376 9.99999C18.4376 6.78979 15.8259 4.17802 12.6157 4.17802ZM13.3284 5.66169C14.7194 5.88947 15.8928 6.77205 16.5206 7.98175L14.6748 8.58151C14.3542 8.11749 13.8811 7.7669 13.3285 7.60229L13.3284 5.66169ZM13.6918 9.99995C13.6918 10.5933 13.209 11.0761 12.6157 11.0761C12.0223 11.0761 11.5395 10.5934 11.5395 9.99995C11.5395 9.40655 12.0223 8.9238 12.6157 8.9238C13.209 8.9238 13.6918 9.40655 13.6918 9.99995ZM11.9028 5.66169V7.60229C11.3501 7.7669 10.8771 8.11749 10.5565 8.58151L8.71073 7.98175C9.3385 6.77205 10.5119 5.88942 11.9028 5.66169ZM9.4904 13.0889C8.70501 12.2943 8.21925 11.2028 8.21925 9.99995C8.21925 9.77471 8.23635 9.55338 8.26918 9.33716L10.1155 9.93709C10.115 9.95806 10.1139 9.97885 10.1139 9.99995C10.1139 10.5713 10.3068 11.0981 10.6304 11.5198L9.4904 13.0889ZM12.6157 14.3963C11.9066 14.3963 11.2364 14.2275 10.6427 13.928L11.783 12.3587C12.0436 12.451 12.3238 12.5018 12.6157 12.5018C12.9075 12.5018 13.1877 12.451 13.4483 12.3587L14.5886 13.928C13.9949 14.2274 13.3247 14.3963 12.6157 14.3963ZM15.7409 13.0889L14.6009 11.5198C14.9245 11.0982 15.1174 10.5713 15.1174 9.99999C15.1174 9.9789 15.1163 9.9581 15.1157 9.93713L16.9621 9.3372C16.9949 9.55342 17.012 9.77475 17.012 9.99999C17.012 11.2028 16.5263 12.2942 15.7409 13.0889Z" />
</svg>
