<svg width="159" height="75" viewBox="0 0 159 75" fill="none" xmlns="http://www.w3.org/2000/svg">
<path d="M6.40771 75L154.547 64.1147L155.416 58.672L6.40771 75Z" fill="#F9B233"/>
<path d="M10.8606 15.3484L9.9917 20.791L159 4.46301L10.8606 15.3484Z" fill="#F9B233"/>
<path d="M101.004 0L88.9488 1.08853L70.4857 29.3904L61.4713 3.59216L49.416 4.6807L40.8361 43.6502L52.1311 42.5617L54.5205 31.894L56.2582 23.9478L57.3443 26.8868H57.2357L60.0594 34.7242H60.168L62.5574 41.6909L74.5041 40.6023L79.3914 32.9826H79.5L85.1475 24.3832H85.0389L87.2111 21.1176L86.2336 28.955L84.9303 39.6226L96.2254 38.5341L101.004 0Z" fill="black"/>
<path fill-rule="evenodd" clip-rule="evenodd" d="M76.4589 63.2439L81.9979 62.6996L79.4999 55.8418L80.4774 55.733C81.9979 55.6241 83.4098 54.209 83.7356 52.6851C84.0614 51.0523 84.2786 49.3106 84.6044 47.6778C84.8216 46.1539 83.8442 44.9565 82.3237 45.0653C76.0245 45.7185 69.8339 46.2627 63.6434 46.807L62.8831 51.27C68.2048 50.8346 73.418 50.2903 78.7397 49.8549L78.3052 52.2497C73.961 52.6851 69.5081 53.1205 65.1639 53.5559C63.6434 53.6648 62.2315 55.0799 61.9057 56.6038C61.4712 59.3251 60.9282 62.0465 60.4938 64.659L63.2089 64.4413L65.3811 64.2235H65.9241C66.3585 61.8288 66.793 59.434 67.1188 57.1481C69.2909 56.9304 71.463 56.7127 73.6352 56.495L76.4589 63.2439Z" fill="black"/>
<path fill-rule="evenodd" clip-rule="evenodd" d="M136.844 44.4122C136.627 45.3919 136.627 45.9362 136.41 46.9159L148.031 45.8273L147.379 49.6372C143.143 50.0726 139.994 50.2903 135.758 50.7257C135.541 51.9231 135.541 52.2497 135.324 53.4471C140.645 52.9028 145.207 52.5762 150.637 52.032L149.877 56.495C143.795 57.0392 138.256 57.5835 132.283 58.1278C130.654 58.2366 129.676 57.0392 129.893 55.4064C130.545 51.3789 131.305 47.4601 131.957 43.4326C132.283 41.7998 133.803 40.3847 135.324 40.2758C141.297 39.7315 146.836 39.1873 152.918 38.643L152.158 43.106C146.836 43.5414 142.274 43.9768 136.844 44.4122Z" fill="black"/>
<path fill-rule="evenodd" clip-rule="evenodd" d="M115.449 46.3716C115.014 48.5486 114.58 51.27 113.928 55.4064L124.246 54.4267L124.572 52.5762C119.25 53.0116 124.68 52.5762 119.359 53.0116L120.01 48.984C126.201 48.4398 120.553 48.984 126.744 48.3309C128.264 48.2221 129.242 49.3106 129.025 50.9434L128.481 53.9913L128.264 55.5152C128.047 57.0392 126.527 58.4543 125.006 58.5631L110.67 59.8694C109.15 59.9782 108.172 58.8897 108.389 57.2569L110.453 45.0653C110.67 43.5414 112.19 42.1263 113.711 42.0174L130.219 40.4935L129.459 44.9565C124.572 45.6096 120.336 45.9361 115.449 46.3716Z" fill="black"/>
<path fill-rule="evenodd" clip-rule="evenodd" d="M12.7069 45.8273C12.0553 49.746 11.1864 54.4267 9.99175 61.611L27.9118 59.9782L28.4549 56.7126C19.2233 57.5835 28.6721 56.7126 19.4405 57.5835L20.6352 50.6168C31.3872 49.6372 21.504 50.508 32.3647 49.5283C34.9713 49.3106 36.8176 51.27 36.2745 53.9913L35.4057 59.3251L34.9713 62.0464C34.5368 64.7678 32.0389 67.1626 29.3237 67.3803L4.45282 69.6662C1.84626 69.8839 -5.31077e-05 67.9245 0.54298 65.2032L4.2356 43.8679C4.67003 41.1466 7.27659 38.7518 9.88314 38.5341L38.4467 35.9216L37.1434 43.5414C28.6721 44.3033 21.1782 45.0653 12.7069 45.8273Z" fill="black"/>
<path fill-rule="evenodd" clip-rule="evenodd" d="M59.2991 64.7678L53.7602 65.312L52.7827 62.5907L43.0081 63.4615L41.0532 66.5094L35.5143 67.0537L47.7868 48.2221L53.2171 47.6778L59.2991 64.7678ZM51.4794 58.8897L49.5245 53.3382L45.6147 59.434L51.4794 58.8897Z" fill="black"/>
<path fill-rule="evenodd" clip-rule="evenodd" d="M106.869 60.4137L101.33 60.958L100.352 58.2366L90.5778 59.1074L88.6229 62.1553L83.084 62.6996L95.3565 43.9768L100.787 43.4326L106.869 60.4137ZM99.0491 54.5356L97.0942 48.9841L93.1844 55.0799L99.0491 54.5356Z" fill="black"/>
<path fill-rule="evenodd" clip-rule="evenodd" d="M129.024 26.016C131.197 25.7983 133.26 23.8389 133.695 21.553C134.129 19.1582 134.672 15.7838 135.106 13.389C135.541 11.1031 134.02 9.47027 131.848 9.68798C122.943 10.5588 113.928 11.3208 105.022 12.1916L103.936 18.614C111.539 17.9608 119.25 17.1989 126.852 16.5457L126.201 20.1379C119.902 20.6822 113.602 21.2264 107.303 21.8796C105.131 22.0973 103.068 24.0566 102.633 26.3426L101.656 31.7852V31.8941V32.1118V32.3295V32.5472V32.7649V32.9826V33.2003V33.418V33.6357V33.8534V34.0711V34.2889V34.5066V34.7243V34.942V35.1597V35.3774V35.5951V35.8128V36.0305V36.2482V36.4659V36.6836V36.9013V37.119V37.3367V37.5545V37.7722V37.9899V38.2076V38.4253V38.643V38.8607V39.0784V39.2961L105.674 38.9695L108.715 38.643L109.584 38.5341L132.5 36.4659L133.586 30.0436L110.67 32.1118L111.213 29.0639L129.024 26.016Z" fill="black"/>
</svg>
